<svg  xmlns="http://www.w3.org/2000/svg" width="24" height="24"  
fill="currentColor" viewBox="0 0 24 24" >
<!--Boxicons v3.0.8 https://boxicons.com | License  https://docs.boxicons.com/free-->
<path d="M20.83 14.64c.1-.54.17-1.09.17-1.64 0-3.78-2.35-7.11-5.82-8.41C14.87 3.11 13.56 2 12 2S9.12 3.11 8.82 4.59A8.985 8.985 0 0 0 3 13c0 .55.07 1.1.17 1.64A2.98 2.98 0 0 0 2 17c0 1.65 1.35 3 3 3 .39 0 .76-.08 1.1-.21C7.74 21.22 9.8 22 12 22s4.27-.78 5.9-2.21c.34.13.71.21 1.1.21 1.65 0 3-1.35 3-3 0-.96-.46-1.81-1.17-2.36M12 4a1.25 1.25 0 1 1 0 2.5A1.25 1.25 0 0 1 12 4M4 17c0-.55.45-1 1-1s1 .45 1 1-.45 1-1 1-1-.45-1-1m3.61 1.45c.24-.43.39-.92.39-1.45 0-1.63-1.31-2.95-2.92-2.99C5.03 13.68 5 13.34 5 13c0-2.77 1.63-5.23 4.08-6.35C9.6 7.74 10.71 8.5 12 8.5s2.4-.76 2.92-1.85A6.98 6.98 0 0 1 19 13c0 .34-.03.68-.08 1.01A2.99 2.99 0 0 0 16 17c0 .53.15 1.02.39 1.45-1.24 1-2.77 1.55-4.39 1.55s-3.15-.55-4.39-1.55M19 18c-.55 0-1-.45-1-1s.45-1 1-1 1 .45 1 1-.45 1-1 1"></path>
</svg>