<svg
    fill="currentColor"
    version="1.1"
    xmlns="http://www.w3.org/2000/svg"
    xmlns:xlink="http://www.w3.org/1999/xlink"
    viewBox="0 0 512 512"
    width="24" height="24" 
    xml:space="preserve"
>
    <g>
        <g>
            <path
                d="M71.442,0v132.016c-3.782-0.677-7.766-1.039-11.907-1.039c-27.153,0-47.628,15.356-47.628,35.721 s20.475,35.721,47.628,35.721c27.153,0,47.628-15.356,47.628-35.721V35.721h29.767V0H71.442z"
            ></path>
        </g>
    </g>
    <g>
        <g>
            <path
                d="M464.372,407.909v-175.73c0-88.634-72.11-160.744-160.744-160.744s-160.744,72.11-160.744,160.744v175.73 c-20.788,7.373-35.721,27.225-35.721,50.509V512h392.93v-53.581C500.093,435.135,485.161,415.282,464.372,407.909z M303.628,107.156c62.877,0,115.052,46.659,123.743,107.17h-36.237c-8.294-40.716-44.377-71.449-87.507-71.449 s-79.212,30.733-87.507,71.449h-36.237C188.576,153.814,240.751,107.156,303.628,107.156z M428.651,250.047v154.791H392.93 V250.047H428.651z M178.605,250.047h35.721v154.791h-35.721V250.047z M250.047,476.279H142.884v-17.86 c0-9.848,8.012-17.86,17.86-17.86h71.442c9.848,0,17.86,8.012,17.86,17.86V476.279z M321.488,458.419v17.86h-35.721v-17.86 c0-23.284-14.933-43.137-35.721-50.509v-175.73c0-29.545,24.037-53.581,53.581-53.581c29.545,0,53.581,24.037,53.581,53.589 v175.723C336.421,415.282,321.488,435.135,321.488,458.419z M464.372,476.279H357.209v-17.86c0-9.848,8.012-17.86,17.86-17.86 h71.442c9.848,0,17.86,8.012,17.86,17.86V476.279z"
            ></path>
        </g>
    </g>
    <g>
        <g><rect x="285.767" y="214.326" width="35.721" height="35.721"></rect></g>
    </g>
    <g>
        <g>
            <rect x="285.767" y="291.721" width="35.721" height="95.256"></rect>
        </g>
    </g>
</svg>
