<?xml version="1.0" encoding="UTF-8" standalone="no"?>
<!-- Created with Inkscape (http://www.inkscape.org/) -->

<svg
   width="512"
   height="512"
   viewBox="0 0 135.46666 135.46667"
   version="1.1"
   id="svg5"
   xml:space="preserve"
   sodipodi:docname="logo.svg"
   inkscape:version="1.2.1 (9c6d41e410, 2022-07-14)"
   inkscape:export-filename="logo-192.png"
   inkscape:export-xdpi="36"
   inkscape:export-ydpi="36"
   xmlns:inkscape="http://www.inkscape.org/namespaces/inkscape"
   xmlns:sodipodi="http://sodipodi.sourceforge.net/DTD/sodipodi-0.dtd"
   xmlns="http://www.w3.org/2000/svg"
   xmlns:svg="http://www.w3.org/2000/svg"><sodipodi:namedview
     id="namedview7"
     pagecolor="#ffffff"
     bordercolor="#000000"
     borderopacity="0.25"
     inkscape:showpageshadow="2"
     inkscape:pageopacity="0.0"
     inkscape:pagecheckerboard="0"
     inkscape:deskcolor="#d1d1d1"
     inkscape:document-units="mm"
     showgrid="false"
     inkscape:zoom="0.75098906"
     inkscape:cx="-9.9868299"
     inkscape:cy="332.22854"
     inkscape:window-width="1920"
     inkscape:window-height="1001"
     inkscape:window-x="-9"
     inkscape:window-y="1341"
     inkscape:window-maximized="1"
     inkscape:current-layer="svg5" /><defs
     id="defs2"><filter
       style="color-interpolation-filters:sRGB"
       inkscape:label="Drop Shadow"
       id="filter17619"
       x="-0.02402447"
       y="-0.027632995"
       width="1.0680693"
       height="1.0782934"><feFlood
         flood-opacity="0.498039"
         flood-color="rgb(0,0,0)"
         result="flood"
         id="feFlood17609" /><feComposite
         in="flood"
         in2="SourceGraphic"
         operator="in"
         result="composite1"
         id="feComposite17611" /><feGaussianBlur
         in="composite1"
         stdDeviation="3"
         result="blur"
         id="feGaussianBlur17613" /><feOffset
         dx="6"
         dy="6"
         result="offset"
         id="feOffset17615" /><feComposite
         in="SourceGraphic"
         in2="offset"
         operator="over"
         result="composite2"
         id="feComposite17617" /></filter><filter
       style="color-interpolation-filters:sRGB"
       inkscape:label="Drop Shadow"
       id="filter17631"
       x="-0.022882367"
       y="-0.026350452"
       width="1.0648334"
       height="1.0746596"><feFlood
         flood-opacity="0.498039"
         flood-color="rgb(0,0,0)"
         result="flood"
         id="feFlood17621" /><feComposite
         in="flood"
         in2="SourceGraphic"
         operator="in"
         result="composite1"
         id="feComposite17623" /><feGaussianBlur
         in="composite1"
         stdDeviation="3"
         result="blur"
         id="feGaussianBlur17625" /><feOffset
         dx="6"
         dy="6"
         result="offset"
         id="feOffset17627" /><feComposite
         in="SourceGraphic"
         in2="offset"
         operator="over"
         result="composite2"
         id="feComposite17629" /></filter></defs><rect
     style="fill:#ffffff;fill-opacity:1;stroke:none;stroke-width:2.08488;stroke-dasharray:none;stroke-opacity:1"
     id="rect2671"
     width="88.3685"
     height="104.18599"
     x="6.0265579"
     y="14.745864"
     inkscape:label="white" /><g
     id="g2375"
     style="font-weight:bold;font-stretch:condensed;font-size:64.2056px;font-family:Arial;-inkscape-font-specification:'Arial Bold Condensed';stroke-width:2.64583"
     transform="matrix(0.95427146,0,0,1.0526165,2.7072701,-6.4600172)"><path
       style="font-weight:bold;font-stretch:condensed;font-size:64.2056px;font-family:Arial;-inkscape-font-specification:'Arial Bold Condensed';fill:none;fill-opacity:1;stroke:#000000;stroke-width:4.3848;stroke-dasharray:none;stroke-opacity:1"
       d="M 82.870926,117.39205 4.7046726,117.05258"
       id="path2188-2-2"
       inkscape:label="outline2188"
       sodipodi:nodetypes="cc" /><path
       style="font-weight:bold;font-stretch:condensed;font-size:64.2056px;font-family:Arial;-inkscape-font-specification:'Arial Bold Condensed';fill:none;fill-opacity:1;stroke:#000000;stroke-width:2.22878;stroke-dasharray:none;stroke-opacity:1"
       d="M 82.945584,112.63681 4.6810329,112.54921"
       id="path2188-2"
       inkscape:label="outline2188"
       sodipodi:nodetypes="cc" /></g><g
     id="g2184"
     transform="matrix(1.0525705,0,0,1.0525705,-18.470239,58.835894)"
     style="font-weight:bold;font-stretch:condensed;font-size:64.2056px;font-family:Arial;-inkscape-font-specification:'Arial Bold Condensed';stroke-width:2.64583"><rect
       style="fill:#d0ff00;fill-opacity:1;stroke-width:2.85504"
       id="rect2176"
       width="72.573555"
       height="19.253506"
       x="25.48716"
       y="21.87163"
       inkscape:label="rect2176" /><path
       style="fill:none;fill-opacity:1;stroke:#000000;stroke-width:2.30113;stroke-dasharray:none;stroke-opacity:1"
       d="M 109.04678,22.014708 25.528571,21.927164 V 43.200685"
       id="path2178"
       inkscape:label="outline2178" /><g
       aria-label="✓"
       id="g2182"
       style="font-weight:normal;font-stretch:normal;font-size:39.5111px;font-family:'Imprint MT Shadow';-inkscape-font-specification:'Imprint MT Shadow';fill:none;stroke:#000000;stroke-width:1"
       transform="translate(7.351749)"><path
         d="m 26.609565,28.600472 q 0.801344,0 1.212289,1.315025 0.82189,2.465673 1.171194,2.465673 0.267115,0 0.554777,-0.410946 5.773782,-9.246271 10.68458,-14.958412 1.273931,-1.479404 4.047812,-1.479404 0.657513,0 0.883533,0.123284 0.22602,0.123283 0.22602,0.308209 0,0.287661 -0.678059,1.1301 -7.931247,9.533933 -14.711847,20.136324 -0.472587,0.739702 -1.931443,0.739702 -1.479404,0 -1.746518,-0.123283 -0.698607,-0.30821 -1.643782,-3.143733 -1.068457,-3.143732 -1.068457,-3.945076 0,-0.862985 1.438309,-1.664329 0.883532,-0.493134 1.561592,-0.493134 z"
         style="font-weight:normal;font-stretch:normal;font-size:39.5111px;font-family:'Imprint MT Shadow';-inkscape-font-specification:'Imprint MT Shadow';fill:#ffffff;fill-opacity:1;stroke:none;stroke-width:1.06504"
         id="path2433"
         inkscape:label="outline2433" /><path
         d="m 27.547427,29.7336 q 0.752409,0 1.138259,1.234721 0.771701,2.315104 1.099674,2.315104 0.250803,0 0.520899,-0.385851 5.4212,-8.681638 10.032115,-14.044961 1.196137,-1.389062 3.800628,-1.389062 0.617361,0 0.829579,0.115755 0.212218,0.115755 0.212218,0.289388 0,0.270095 -0.636653,1.061089 -7.446917,8.951734 -13.813452,18.906679 -0.443728,0.694531 -1.813498,0.694531 -1.389062,0 -1.639865,-0.115755 -0.655946,-0.289388 -1.543402,-2.951757 -1.003211,-2.951757 -1.003211,-3.704166 0,-0.810286 1.350477,-1.562695 0.829578,-0.46302 1.466232,-0.46302 z"
         style="fill:#000000;stroke:none"
         id="path2180" /></g></g><g
     id="g2493"
     transform="matrix(1.0525705,0,0,1.0525705,-18.470239,26.845108)"
     style="font-weight:bold;font-stretch:condensed;font-size:64.2056px;font-family:Arial;-inkscape-font-specification:'Arial Bold Condensed';stroke-width:2.64583"><rect
       style="fill:#d0ff00;fill-opacity:1;stroke-width:2.85504"
       id="rect2483"
       width="72.573555"
       height="19.253506"
       x="25.48716"
       y="21.870302"
       inkscape:label="rect2176" /><path
       style="fill:none;fill-opacity:1;stroke:#000000;stroke-width:2.30113;stroke-dasharray:none;stroke-opacity:1"
       d="M 109.04678,22.01338 25.528571,21.925836 V 43.199357"
       id="path2485"
       inkscape:label="outline2178" /><g
       aria-label="✓"
       id="g2491"
       style="font-weight:normal;font-stretch:normal;font-size:39.5111px;font-family:'Imprint MT Shadow';-inkscape-font-specification:'Imprint MT Shadow';fill:none;stroke:#000000;stroke-width:1"
       transform="translate(7.351749)"><path
         d="m 26.609565,28.600472 q 0.801344,0 1.212289,1.315025 0.82189,2.465673 1.171194,2.465673 0.267115,0 0.554777,-0.410946 5.773782,-9.246271 10.68458,-14.958412 1.273931,-1.479404 4.047812,-1.479404 0.657513,0 0.883533,0.123284 0.22602,0.123283 0.22602,0.308209 0,0.287661 -0.678059,1.1301 -7.931247,9.533933 -14.711847,20.136324 -0.472587,0.739702 -1.931443,0.739702 -1.479404,0 -1.746518,-0.123283 -0.698607,-0.30821 -1.643782,-3.143733 -1.068457,-3.143732 -1.068457,-3.945076 0,-0.862985 1.438309,-1.664329 0.883532,-0.493134 1.561592,-0.493134 z"
         style="font-weight:normal;font-stretch:normal;font-size:39.5111px;font-family:'Imprint MT Shadow';-inkscape-font-specification:'Imprint MT Shadow';fill:#ffffff;fill-opacity:1;stroke:none;stroke-width:1.06504"
         id="path2487"
         inkscape:label="outline2433" /><path
         d="m 27.547427,29.7336 q 0.752409,0 1.138259,1.234721 0.771701,2.315104 1.099674,2.315104 0.250803,0 0.520899,-0.385851 5.4212,-8.681638 10.032115,-14.044961 1.196137,-1.389062 3.800628,-1.389062 0.617361,0 0.829579,0.115755 0.212218,0.115755 0.212218,0.289388 0,0.270095 -0.636653,1.061089 -7.446917,8.951734 -13.813452,18.906679 -0.443728,0.694531 -1.813498,0.694531 -1.389062,0 -1.639865,-0.115755 -0.655946,-0.289388 -1.543402,-2.951757 -1.003211,-2.951757 -1.003211,-3.704166 0,-0.810286 1.350477,-1.562695 0.829578,-0.46302 1.466232,-0.46302 z"
         style="fill:#000000;stroke:none"
         id="path2489" /></g></g><g
     id="g2535"
     transform="matrix(1.0525705,0,0,1.0525705,-18.470239,-5.6701154)"
     style="font-weight:bold;font-stretch:condensed;font-size:64.2056px;font-family:Arial;-inkscape-font-specification:'Arial Bold Condensed';stroke-width:2.64583"><rect
       style="fill:#d0ff00;fill-opacity:1;stroke-width:2.85504"
       id="rect2525"
       width="72.573555"
       height="19.253506"
       x="25.48716"
       y="21.868954"
       inkscape:label="rect2176" /><path
       style="fill:none;fill-opacity:1;stroke:#000000;stroke-width:2.30113;stroke-dasharray:none;stroke-opacity:1"
       d="M 109.04678,22.012031 25.528571,21.924487 V 43.198008"
       id="path2527"
       inkscape:label="outline2178" /><g
       aria-label="✓"
       id="g2533"
       style="font-weight:normal;font-stretch:normal;font-size:39.5111px;font-family:'Imprint MT Shadow';-inkscape-font-specification:'Imprint MT Shadow';fill:none;stroke:#000000;stroke-width:1"
       transform="translate(7.351749)"><path
         d="m 26.609565,28.600472 q 0.801344,0 1.212289,1.315025 0.82189,2.465673 1.171194,2.465673 0.267115,0 0.554777,-0.410946 5.773782,-9.246271 10.68458,-14.958412 1.273931,-1.479404 4.047812,-1.479404 0.657513,0 0.883533,0.123284 0.22602,0.123283 0.22602,0.308209 0,0.287661 -0.678059,1.1301 -7.931247,9.533933 -14.711847,20.136324 -0.472587,0.739702 -1.931443,0.739702 -1.479404,0 -1.746518,-0.123283 -0.698607,-0.30821 -1.643782,-3.143733 -1.068457,-3.143732 -1.068457,-3.945076 0,-0.862985 1.438309,-1.664329 0.883532,-0.493134 1.561592,-0.493134 z"
         style="font-weight:normal;font-stretch:normal;font-size:39.5111px;font-family:'Imprint MT Shadow';-inkscape-font-specification:'Imprint MT Shadow';fill:#ffffff;fill-opacity:1;stroke:none;stroke-width:1.06504"
         id="path2529"
         inkscape:label="outline2433" /><path
         d="m 27.547427,29.7336 q 0.752409,0 1.138259,1.234721 0.771701,2.315104 1.099674,2.315104 0.250803,0 0.520899,-0.385851 5.4212,-8.681638 10.032115,-14.044961 1.196137,-1.389062 3.800628,-1.389062 0.617361,0 0.829579,0.115755 0.212218,0.115755 0.212218,0.289388 0,0.270095 -0.636653,1.061089 -7.446917,8.951734 -13.813452,18.906679 -0.443728,0.694531 -1.813498,0.694531 -1.389062,0 -1.639865,-0.115755 -0.655946,-0.289388 -1.543402,-2.951757 -1.003211,-2.951757 -1.003211,-3.704166 0,-0.810286 1.350477,-1.562695 0.829578,-0.46302 1.466232,-0.46302 z"
         style="fill:#000000;stroke:none"
         id="path2531" /></g></g><path
     d="m 93.817074,14.964732 h 6.017222 l 0.553314,0.497424 v 2.771364 c 1.24495,2.55818 5.85585,5.329542 13.83269,8.314087 11.06617,3.31616 16.59925,8.243027 16.59925,14.780601 0,6.916563 -2.81265,12.648783 -8.43793,17.19666 h -0.27667 l -2.07489,-2.27394 c 2.81264,-2.321311 4.21896,-5.471663 4.21896,-9.451055 0,-3.316161 -5.25644,-6.656008 -15.7693,-10.019543 -4.24202,-1.989696 -6.93939,-3.600402 -8.09211,-4.832119 v 73.521709 c 0,7.24816 -5.164212,14.16703 -15.492637,16.29884 h -3.942321 c -11.158381,0 -16.868682,-7.91268 -16.868682,-15.87145 0,-6.205953 4.953111,-14.180352 14.728221,-15.269937 h 1.590761 c 4.426466,0 8.691555,1.515954 12.795265,4.547862 l 0.06555,-79.713079 z"
     style="font-weight:normal;font-stretch:normal;font-size:64.2056px;font-family:'Imprint MT Shadow';-inkscape-font-specification:'Imprint MT Shadow';stroke:#ffffff;stroke-width:2.10514;stroke-dasharray:none;stroke-opacity:1"
     id="path581"
     inkscape:label="8th note"
     sodipodi:nodetypes="cccccscccsccscsscsccc" /><g
     inkscape:label="Ebene 1"
     inkscape:groupmode="layer"
     id="layer1" /></svg>
